<svg xmlns="http://www.w3.org/2000/svg" viewBox="0 0 375 812" width="375" height="812">
  <defs>
    <linearGradient id="bgGrad" x1="0" y1="0" x2="0" y2="1">
      <stop offset="0%" stop-color="#0f1b2d"/>
      <stop offset="100%" stop-color="#1e3a5f"/>
    </linearGradient>
    <filter id="cardShadow" x="-5%" y="-5%" width="110%" height="110%">
      <feDropShadow dx="0" dy="4" stdDeviation="8" flood-color="#000" flood-opacity="0.15"/>
    </filter>
  </defs>

  <!-- Background -->
  <rect width="375" height="812" fill="url(#bgGrad)"/>

  <!-- Subtle topo pattern -->
  <g opacity="0.06" stroke="#fff" stroke-width="1" fill="none">
    <ellipse cx="187" cy="200" rx="160" ry="60"/>
    <ellipse cx="187" cy="220" rx="140" ry="50"/>
    <ellipse cx="187" cy="240" rx="120" ry="40"/>
    <ellipse cx="100" cy="500" rx="130" ry="55"/>
    <ellipse cx="100" cy="520" rx="110" ry="45"/>
    <ellipse cx="300" cy="650" rx="100" ry="40"/>
    <ellipse cx="300" cy="670" rx="80" ry="30"/>
  </g>

  <!-- Status bar area -->
  <rect width="375" height="44" fill="rgba(0,0,0,0.15)"/>
  <text x="187" y="30" text-anchor="middle" fill="#fff" font-family="system-ui, sans-serif" font-size="14" font-weight="600">9:41</text>

  <!-- Pine tree icon -->
  <g transform="translate(187, 140)" fill="#60a5fa">
    <polygon points="0,-40 -18,-5 -12,-5 -25,25 -8,25 -8,38 8,38 8,25 25,25 12,-5 18,-5"/>
  </g>

  <!-- App title -->
  <text x="187" y="210" text-anchor="middle" fill="#e0eaff" font-family="system-ui, sans-serif" font-size="26" font-weight="700">RV Camping</text>
  <text x="187" y="238" text-anchor="middle" fill="#8babc7" font-family="system-ui, sans-serif" font-size="15" font-weight="400">Insurance</text>

  <!-- Login card -->
  <rect x="28" y="280" width="319" height="400" rx="20" fill="#f0f4ff" filter="url(#cardShadow)"/>

  <!-- Welcome text -->
  <text x="187" y="322" text-anchor="middle" fill="#0f1b2d" font-family="system-ui, sans-serif" font-size="20" font-weight="700">Welcome Back</text>
  <text x="187" y="345" text-anchor="middle" fill="#64748b" font-family="system-ui, sans-serif" font-size="13">Sign in to get your RV insured</text>

  <!-- Email field -->
  <text x="52" y="385" fill="#1e3a5f" font-family="system-ui, sans-serif" font-size="12" font-weight="600">EMAIL</text>
  <rect x="44" y="393" width="287" height="48" rx="12" fill="#fff" stroke="#cbd5e1" stroke-width="1.5"/>
  <!-- Email icon -->
  <rect x="56" y="410" width="16" height="12" rx="2" fill="none" stroke="#94a3b8" stroke-width="1.2"/>
  <polyline points="56,411 64,418 72,411" fill="none" stroke="#94a3b8" stroke-width="1.2"/>
  <text x="80" y="423" fill="#94a3b8" font-family="system-ui, sans-serif" font-size="15">camper@email.com</text>

  <!-- Password field -->
  <text x="52" y="465" fill="#1e3a5f" font-family="system-ui, sans-serif" font-size="12" font-weight="600">PASSWORD</text>
  <rect x="44" y="473" width="287" height="48" rx="12" fill="#fff" stroke="#cbd5e1" stroke-width="1.5"/>
  <!-- Lock icon -->
  <rect x="57" y="493" width="12" height="10" rx="2" fill="none" stroke="#94a3b8" stroke-width="1.2"/>
  <path d="M59,493 L59,488 A4,4 0 0,1 67,488 L67,493" fill="none" stroke="#94a3b8" stroke-width="1.2"/>
  <text x="80" y="503" fill="#94a3b8" font-family="system-ui, sans-serif" font-size="15">........</text>
  <!-- Eye icon (show password toggle) -->
  <g transform="translate(310, 497)">
    <ellipse cx="0" cy="0" rx="10" ry="6" fill="none" stroke="#3b82f6" stroke-width="1.5"/>
    <circle cx="0" cy="0" r="3" fill="#3b82f6"/>
  </g>

  <!-- Password requirements -->
  <text x="52" y="540" fill="#64748b" font-family="system-ui, sans-serif" font-size="10">8 chars min, alphanumeric + 2 special characters</text>
  <!-- Requirement checks -->
  <circle cx="52" cy="556" r="5" fill="#3b82f6"/>
  <text x="48" y="560" fill="#fff" font-family="system-ui, sans-serif" font-size="8" font-weight="700" text-anchor="middle">&#10003;</text>
  <text x="62" y="560" fill="#64748b" font-family="system-ui, sans-serif" font-size="10">8+ characters</text>
  <circle cx="145" cy="556" r="5" fill="#3b82f6"/>
  <text x="141" y="560" fill="#fff" font-family="system-ui, sans-serif" font-size="8" font-weight="700" text-anchor="middle">&#10003;</text>
  <text x="155" y="560" fill="#64748b" font-family="system-ui, sans-serif" font-size="10">Alphanumeric</text>
  <circle cx="245" cy="556" r="5" fill="#3b82f6"/>
  <text x="241" y="560" fill="#fff" font-family="system-ui, sans-serif" font-size="8" font-weight="700" text-anchor="middle">&#10003;</text>
  <text x="255" y="560" fill="#64748b" font-family="system-ui, sans-serif" font-size="10">2 special chars</text>

  <!-- Sign In button -->
  <rect x="44" y="580" width="287" height="52" rx="14" fill="#2563eb"/>
  <text x="187" y="612" text-anchor="middle" fill="#fff" font-family="system-ui, sans-serif" font-size="17" font-weight="700">SIGN IN</text>

  <!-- Forgot password -->
  <text x="187" y="655" text-anchor="middle" fill="#8babc7" font-family="system-ui, sans-serif" font-size="13" text-decoration="underline">Forgot password?</text>

  <!-- Offline indicator -->
  <rect x="107" y="700" width="161" height="36" rx="18" fill="rgba(255,255,255,0.12)"/>
  <circle cx="132" cy="718" r="5" fill="#60a5fa"/>
  <text x="190" y="723" text-anchor="middle" fill="#8babc7" font-family="system-ui, sans-serif" font-size="12">Works Offline</text>

  <!-- Home indicator -->
  <rect x="140" y="786" width="96" height="5" rx="2.5" fill="rgba(255,255,255,0.3)"/>
</svg>
