<svg xmlns="http://www.w3.org/2000/svg" viewBox="0 0 375 812" width="375" height="812">
  <defs>
    <linearGradient id="bgGrad" x1="0" y1="0" x2="0" y2="1">
      <stop offset="0%" stop-color="#1a3a2a"/>
      <stop offset="100%" stop-color="#2d6a4f"/>
    </linearGradient>
    <filter id="cardShadow" x="-5%" y="-5%" width="110%" height="110%">
      <feDropShadow dx="0" dy="4" stdDeviation="8" flood-color="#000" flood-opacity="0.15"/>
    </filter>
  </defs>

  <!-- Background -->
  <rect width="375" height="812" fill="url(#bgGrad)"/>

  <g opacity="0.06" stroke="#fff" stroke-width="1" fill="none">
    <ellipse cx="100" cy="650" rx="130" ry="55"/>
    <ellipse cx="100" cy="670" rx="110" ry="45"/>
  </g>

  <!-- Status bar -->
  <rect width="375" height="44" fill="rgba(0,0,0,0.15)"/>
  <text x="187" y="30" text-anchor="middle" fill="#fff" font-family="system-ui, sans-serif" font-size="14" font-weight="600">9:41</text>

  <!-- Header bar -->
  <rect x="0" y="44" width="375" height="56" fill="rgba(0,0,0,0.1)"/>
  <polyline points="24,72 14,72" fill="none" stroke="#fefae0" stroke-width="2" stroke-linecap="round"/>
  <polyline points="19,66 13,72 19,78" fill="none" stroke="#fefae0" stroke-width="2" stroke-linecap="round" stroke-linejoin="round"/>
  <text x="40" y="77" fill="#fefae0" font-family="system-ui, sans-serif" font-size="16" font-weight="600">Vehicle Details</text>

  <!-- Progress bar (50%) -->
  <rect x="28" y="118" width="319" height="6" rx="3" fill="rgba(255,255,255,0.15)"/>
  <rect x="28" y="118" width="160" height="6" rx="3" fill="#e76f51"/>

  <text x="187" y="152" text-anchor="middle" fill="#a7c4b5" font-family="system-ui, sans-serif" font-size="13" font-weight="500">Step 2 of 4</text>

  <!-- Main card -->
  <rect x="28" y="180" width="319" height="420" rx="20" fill="#fefae0" filter="url(#cardShadow)"/>

  <!-- VIN barcode icon -->
  <g transform="translate(187, 225)">
    <rect x="-25" y="-12" width="4" height="24" fill="#2d6a4f"/>
    <rect x="-18" y="-12" width="2" height="24" fill="#2d6a4f"/>
    <rect x="-13" y="-12" width="5" height="24" fill="#2d6a4f"/>
    <rect x="-5" y="-12" width="3" height="24" fill="#2d6a4f"/>
    <rect x="1" y="-12" width="2" height="24" fill="#2d6a4f"/>
    <rect x="6" y="-12" width="4" height="24" fill="#2d6a4f"/>
    <rect x="13" y="-12" width="2" height="24" fill="#2d6a4f"/>
    <rect x="18" y="-12" width="5" height="24" fill="#2d6a4f"/>
  </g>

  <!-- Question -->
  <text x="187" y="275" text-anchor="middle" fill="#1a3a2a" font-family="system-ui, sans-serif" font-size="22" font-weight="700">What's your VIN?</text>

  <text x="187" y="305" text-anchor="middle" fill="#6b7c74" font-family="system-ui, sans-serif" font-size="13">Vehicle Identification Number (17 characters)</text>
  <text x="187" y="323" text-anchor="middle" fill="#6b7c74" font-family="system-ui, sans-serif" font-size="12">Found on dashboard or driver-side door</text>

  <!-- Input field -->
  <rect x="52" y="348" width="271" height="56" rx="14" fill="#fff" stroke="#2d6a4f" stroke-width="2"/>
  <text x="78" y="382" fill="#1a3a2a" font-family="monospace" font-size="15" font-weight="500" letter-spacing="1">1HGBH41JXMN</text>
  <rect x="206" y="364" width="2" height="24" fill="#e76f51" opacity="0.8"/>

  <!-- Character counter -->
  <text x="305" y="428" text-anchor="end" fill="#8a9590" font-family="system-ui, sans-serif" font-size="12">11 / 17</text>

  <!-- Info callout -->
  <rect x="52" y="448" width="271" height="50" rx="10" fill="#e8f5e9"/>
  <circle cx="74" cy="473" r="10" fill="#2d6a4f"/>
  <text x="74" y="478" text-anchor="middle" fill="#fff" font-family="system-ui, sans-serif" font-size="12" font-weight="700">i</text>
  <text x="94" y="468" fill="#2d6a4f" font-family="system-ui, sans-serif" font-size="11">VINs never contain the letters</text>
  <text x="94" y="484" fill="#2d6a4f" font-family="system-ui, sans-serif" font-size="11" font-weight="600">I, O, or Q</text>

  <!-- Back button -->
  <rect x="28" y="640" width="152" height="56" rx="16" fill="rgba(255,255,255,0.12)" stroke="#fefae0" stroke-width="1.5"/>
  <text x="104" y="674" text-anchor="middle" fill="#fefae0" font-family="system-ui, sans-serif" font-size="16" font-weight="600">BACK</text>

  <!-- Next button -->
  <rect x="195" y="640" width="152" height="56" rx="16" fill="#e76f51"/>
  <text x="271" y="674" text-anchor="middle" fill="#fff" font-family="system-ui, sans-serif" font-size="16" font-weight="700">NEXT</text>

  <rect x="140" y="786" width="96" height="5" rx="2.5" fill="rgba(255,255,255,0.3)"/>
</svg>
