<svg xmlns="http://www.w3.org/2000/svg" viewBox="0 0 375 812" width="375" height="812">
  <defs>
    <linearGradient id="bgGrad" x1="0" y1="0" x2="0" y2="1">
      <stop offset="0%" stop-color="#0f1b2d"/>
      <stop offset="100%" stop-color="#1e3a5f"/>
    </linearGradient>
    <filter id="cardShadow" x="-5%" y="-5%" width="110%" height="110%">
      <feDropShadow dx="0" dy="4" stdDeviation="8" flood-color="#000" flood-opacity="0.15"/>
    </filter>
  </defs>

  <!-- Background -->
  <rect width="375" height="812" fill="url(#bgGrad)"/>

  <g opacity="0.06" stroke="#fff" stroke-width="1" fill="none">
    <ellipse cx="300" cy="500" rx="120" ry="50"/>
    <ellipse cx="300" cy="520" rx="100" ry="40"/>
  </g>

  <!-- Status bar -->
  <rect width="375" height="44" fill="rgba(0,0,0,0.15)"/>
  <text x="187" y="30" text-anchor="middle" fill="#fff" font-family="system-ui, sans-serif" font-size="14" font-weight="600">9:41</text>

  <!-- Header bar -->
  <rect x="0" y="44" width="375" height="56" fill="rgba(0,0,0,0.1)"/>
  <polyline points="24,72 14,72" fill="none" stroke="#e0eaff" stroke-width="2" stroke-linecap="round"/>
  <polyline points="19,66 13,72 19,78" fill="none" stroke="#e0eaff" stroke-width="2" stroke-linecap="round" stroke-linejoin="round"/>
  <text x="40" y="77" fill="#e0eaff" font-family="system-ui, sans-serif" font-size="16" font-weight="600">Vehicle Details</text>

  <!-- Progress bar (75%) -->
  <rect x="28" y="118" width="319" height="6" rx="3" fill="rgba(255,255,255,0.15)"/>
  <rect x="28" y="118" width="240" height="6" rx="3" fill="#2563eb"/>

  <text x="187" y="152" text-anchor="middle" fill="#8babc7" font-family="system-ui, sans-serif" font-size="13" font-weight="500">Step 3 of 4</text>

  <!-- Main card -->
  <rect x="28" y="180" width="319" height="380" rx="20" fill="#f0f4ff" filter="url(#cardShadow)"/>

  <!-- Odometer icon -->
  <g transform="translate(187, 228)">
    <path d="M-25,5 A25,25 0 1,1 25,5" fill="none" stroke="#1e3a5f" stroke-width="2.5"/>
    <line x1="0" y1="0" x2="10" y2="-18" stroke="#2563eb" stroke-width="2.5" stroke-linecap="round"/>
    <circle cx="0" cy="0" r="3" fill="#1e3a5f"/>
    <line x1="-22" y1="-8" x2="-18" y2="-6" stroke="#1e3a5f" stroke-width="1.5"/>
    <line x1="-15" y1="-18" x2="-12" y2="-15" stroke="#1e3a5f" stroke-width="1.5"/>
    <line x1="0" y1="-25" x2="0" y2="-21" stroke="#1e3a5f" stroke-width="1.5"/>
    <line x1="15" y1="-18" x2="12" y2="-15" stroke="#1e3a5f" stroke-width="1.5"/>
    <line x1="22" y1="-8" x2="18" y2="-6" stroke="#1e3a5f" stroke-width="1.5"/>
  </g>

  <!-- Question -->
  <text x="187" y="282" text-anchor="middle" fill="#0f1b2d" font-family="system-ui, sans-serif" font-size="22" font-weight="700">Current Mileage?</text>

  <text x="187" y="312" text-anchor="middle" fill="#64748b" font-family="system-ui, sans-serif" font-size="13">Approximate odometer reading in miles</text>

  <!-- Input field -->
  <rect x="72" y="340" width="231" height="64" rx="14" fill="#fff" stroke="#2563eb" stroke-width="2"/>
  <text x="187" y="380" text-anchor="middle" fill="#0f1b2d" font-family="system-ui, sans-serif" font-size="28" font-weight="700">45,000</text>

  <text x="187" y="425" text-anchor="middle" fill="#94a3b8" font-family="system-ui, sans-serif" font-size="14">miles</text>

  <!-- Quick select chips -->
  <text x="187" y="465" text-anchor="middle" fill="#64748b" font-family="system-ui, sans-serif" font-size="11">Quick select:</text>
  <rect x="42" y="478" width="72" height="32" rx="16" fill="#fff" stroke="#cbd5e1" stroke-width="1"/>
  <text x="78" y="499" text-anchor="middle" fill="#64748b" font-family="system-ui, sans-serif" font-size="12">10,000</text>
  <rect x="122" y="478" width="72" height="32" rx="16" fill="#fff" stroke="#cbd5e1" stroke-width="1"/>
  <text x="158" y="499" text-anchor="middle" fill="#64748b" font-family="system-ui, sans-serif" font-size="12">25,000</text>
  <rect x="202" y="478" width="72" height="32" rx="16" fill="#1e3a5f"/>
  <text x="238" y="499" text-anchor="middle" fill="#fff" font-family="system-ui, sans-serif" font-size="12" font-weight="600">50,000</text>
  <rect x="282" y="478" width="72" height="32" rx="16" fill="#fff" stroke="#cbd5e1" stroke-width="1"/>
  <text x="318" y="499" text-anchor="middle" fill="#64748b" font-family="system-ui, sans-serif" font-size="12">100,000</text>

  <!-- Back button -->
  <rect x="28" y="600" width="152" height="56" rx="16" fill="rgba(255,255,255,0.12)" stroke="#e0eaff" stroke-width="1.5"/>
  <text x="104" y="634" text-anchor="middle" fill="#e0eaff" font-family="system-ui, sans-serif" font-size="16" font-weight="600">BACK</text>

  <!-- Next button -->
  <rect x="195" y="600" width="152" height="56" rx="16" fill="#2563eb"/>
  <text x="271" y="634" text-anchor="middle" fill="#fff" font-family="system-ui, sans-serif" font-size="16" font-weight="700">NEXT</text>

  <rect x="140" y="786" width="96" height="5" rx="2.5" fill="rgba(255,255,255,0.3)"/>
</svg>
