<svg xmlns="http://www.w3.org/2000/svg" viewBox="0 0 375 812" width="375" height="812">
  <defs>
    <linearGradient id="bgGrad" x1="0" y1="0" x2="0" y2="1">
      <stop offset="0%" stop-color="#1a3a2a"/>
      <stop offset="100%" stop-color="#2d6a4f"/>
    </linearGradient>
    <filter id="cardShadow" x="-5%" y="-5%" width="110%" height="110%">
      <feDropShadow dx="0" dy="6" stdDeviation="10" flood-color="#000" flood-opacity="0.2"/>
    </filter>
    <filter id="softGlow">
      <feDropShadow dx="0" dy="0" stdDeviation="6" flood-color="#4ade80" flood-opacity="0.3"/>
    </filter>
  </defs>

  <!-- Background -->
  <rect width="375" height="812" fill="url(#bgGrad)"/>

  <g opacity="0.06" stroke="#fff" stroke-width="1" fill="none">
    <ellipse cx="187" cy="750" rx="160" ry="50"/>
  </g>

  <!-- Status bar -->
  <rect width="375" height="44" fill="rgba(0,0,0,0.15)"/>
  <text x="187" y="30" text-anchor="middle" fill="#fff" font-family="system-ui, sans-serif" font-size="14" font-weight="600">9:41</text>

  <!-- Header -->
  <text x="187" y="82" text-anchor="middle" fill="#4ade80" font-family="system-ui, sans-serif" font-size="18" font-weight="700">Quote Ready!</text>

  <!-- Checkmark circle -->
  <circle cx="187" cy="82" r="0" fill="none"/>
  <g transform="translate(187, 82)" filter="url(#softGlow)">
  </g>

  <!-- Document card (certificate style) -->
  <rect x="32" y="105" width="311" height="555" rx="8" fill="#fff" filter="url(#cardShadow)"/>

  <!-- Dashed border inside -->
  <rect x="40" y="113" width="295" height="539" rx="4" fill="none" stroke="#d4ddd8" stroke-width="1" stroke-dasharray="6,3"/>

  <!-- Certificate header -->
  <!-- Pine tree mini icon -->
  <g transform="translate(187, 148)" fill="#2d6a4f">
    <polygon points="0,-14 -7,-2 -5,-2 -10,9 -3,9 -3,14 3,14 3,9 10,9 5,-2 7,-2" transform="scale(0.8)"/>
  </g>

  <text x="187" y="178" text-anchor="middle" fill="#2d6a4f" font-family="system-ui, sans-serif" font-size="16" font-weight="800" letter-spacing="2">RV CAMPING</text>
  <text x="187" y="198" text-anchor="middle" fill="#2d6a4f" font-family="system-ui, sans-serif" font-size="11" font-weight="600" letter-spacing="3">INSURANCE QUOTE</text>

  <!-- Divider -->
  <line x1="72" y1="215" x2="303" y2="215" stroke="#2d6a4f" stroke-width="1.5"/>
  <line x1="92" y1="220" x2="283" y2="220" stroke="#2d6a4f" stroke-width="0.5"/>

  <!-- Quote ID -->
  <text x="187" y="245" text-anchor="middle" fill="#8a9590" font-family="monospace" font-size="10">Quote ID: a3f8b2c1-7d4e-4f9a-b123-456789abcdef</text>

  <!-- Premium highlight -->
  <rect x="72" y="262" width="231" height="70" rx="10" fill="#f0fdf4" stroke="#2d6a4f" stroke-width="1"/>
  <text x="187" y="287" text-anchor="middle" fill="#6b7c74" font-family="system-ui, sans-serif" font-size="11" font-weight="500">MONTHLY PREMIUM</text>
  <text x="187" y="320" text-anchor="middle" fill="#2d6a4f" font-family="system-ui, sans-serif" font-size="32" font-weight="800">$127.50</text>

  <!-- Details section -->
  <text x="72" y="365" fill="#8a9590" font-family="system-ui, sans-serif" font-size="10" font-weight="600" letter-spacing="1">POLICYHOLDER</text>
  <text x="72" y="383" fill="#1a3a2a" font-family="system-ui, sans-serif" font-size="14">camper@email.com</text>

  <line x1="72" y1="398" x2="303" y2="398" stroke="#eee" stroke-width="1"/>

  <text x="72" y="418" fill="#8a9590" font-family="system-ui, sans-serif" font-size="10" font-weight="600" letter-spacing="1">VEHICLE</text>
  <text x="72" y="436" fill="#1a3a2a" font-family="system-ui, sans-serif" font-size="14">RV-20241</text>
  <text x="303" y="436" text-anchor="end" fill="#6b7c74" font-family="system-ui, sans-serif" font-size="12">45,000 mi</text>

  <line x1="72" y1="451" x2="303" y2="451" stroke="#eee" stroke-width="1"/>

  <text x="72" y="471" fill="#8a9590" font-family="system-ui, sans-serif" font-size="10" font-weight="600" letter-spacing="1">VIN</text>
  <text x="72" y="489" fill="#1a3a2a" font-family="monospace" font-size="12">1HGBH41JXMN109186</text>

  <line x1="72" y1="504" x2="303" y2="504" stroke="#eee" stroke-width="1"/>

  <!-- Two column row -->
  <text x="72" y="524" fill="#8a9590" font-family="system-ui, sans-serif" font-size="10" font-weight="600" letter-spacing="1">DEDUCTIBLE</text>
  <text x="72" y="542" fill="#1a3a2a" font-family="system-ui, sans-serif" font-size="14" font-weight="600">$150.00</text>

  <text x="220" y="524" fill="#8a9590" font-family="system-ui, sans-serif" font-size="10" font-weight="600" letter-spacing="1">DATE</text>
  <text x="220" y="542" fill="#1a3a2a" font-family="system-ui, sans-serif" font-size="14">Apr 5, 2026</text>

  <line x1="72" y1="558" x2="303" y2="558" stroke="#eee" stroke-width="1"/>

  <!-- Coverage note -->
  <text x="187" y="580" text-anchor="middle" fill="#8a9590" font-family="system-ui, sans-serif" font-size="9" font-style="italic">This quote is valid for 30 days from the date of issue.</text>
  <text x="187" y="594" text-anchor="middle" fill="#8a9590" font-family="system-ui, sans-serif" font-size="9" font-style="italic">Coverage subject to terms and conditions.</text>

  <!-- Decorative bottom -->
  <line x1="72" y1="612" x2="303" y2="612" stroke="#2d6a4f" stroke-width="1.5"/>
  <text x="187" y="632" text-anchor="middle" fill="#2d6a4f" font-family="system-ui, sans-serif" font-size="9" font-weight="600" letter-spacing="2">ADVENTURE INSURED</text>

  <!-- Download PDF button -->
  <rect x="28" y="685" width="319" height="56" rx="16" fill="#e76f51"/>
  <!-- PDF icon -->
  <rect x="130" y="700" width="20" height="26" rx="2" fill="none" stroke="#fff" stroke-width="1.8"/>
  <path d="M142,700 L150,708 L150,700" fill="none" stroke="#fff" stroke-width="1.3"/>
  <line x1="135" y1="712" x2="145" y2="712" stroke="#fff" stroke-width="1.2"/>
  <line x1="135" y1="716" x2="143" y2="716" stroke="#fff" stroke-width="1.2"/>
  <text x="210" y="718" text-anchor="middle" fill="#fff" font-family="system-ui, sans-serif" font-size="16" font-weight="700">DOWNLOAD PDF</text>

  <!-- New Quote link -->
  <text x="187" y="770" text-anchor="middle" fill="#a7c4b5" font-family="system-ui, sans-serif" font-size="14" font-weight="500" text-decoration="underline">Start New Quote</text>

  <rect x="140" y="786" width="96" height="5" rx="2.5" fill="rgba(255,255,255,0.3)"/>
</svg>
